HIERARCHY
ROOT Hips
{
	OFFSET -3.958830 18.904000 13.208200
	CHANNELS 6 Xposition Yposition Zposition Zrotation Yrotation Xrotation 
	JOINT LHipJoint
	{
		OFFSET 0.000000 0.000000 0.000000
		CHANNELS 3 Zrotation Yrotation Xrotation
		JOINT LeftUpLeg
		{
			OFFSET 1.800000 -1.400000 0.085000
			CHANNELS 3 Zrotation Yrotation Xrotation
			JOINT LeftLeg
			{
				OFFSET 2.215000 -6.000000 0.000000
				CHANNELS 3 Zrotation Yrotation Xrotation
				JOINT LeftFoot
				{
					OFFSET 2.500000 -6.900000 0.000000
					CHANNELS 3 Zrotation Yrotation Xrotation
					JOINT LeftToeBase
					{
						OFFSET 0.200000 -0.500000 1.950000
						CHANNELS 3 Zrotation Yrotation Xrotation
						End Site
						{
							OFFSET 0.000000 0.000000 0.000000
						}
					}
				}
			}
		}
	}
	JOINT RHipJoint
	{
		OFFSET 0.000000 0.000000 0.000000
		CHANNELS 3 Zrotation Yrotation Xrotation
		JOINT RightUpLeg
		{
			OFFSET -1.800000 -1.400000 0.085000
			CHANNELS 3 Zrotation Yrotation Xrotation
			JOINT RightLeg
			{
				OFFSET -2.215000 -6.000000 0.000000
				CHANNELS 3 Zrotation Yrotation Xrotation
				JOINT RightFoot
				{
					OFFSET -2.500000 -6.900000 0.000000
					CHANNELS 3 Zrotation Yrotation Xrotation
					JOINT RightToeBase
					{
						OFFSET -0.200000 -0.500000 1.950000
						CHANNELS 3 Zrotation Yrotation Xrotation
						End Site
						{
							OFFSET 0.000000 0.000000 0.000000
						}
					}
				}
			}
		}
	}
	JOINT LowerBack
	{
		OFFSET 0.000000 0.000000 0.000000
		CHANNELS 3 Zrotation Yrotation Xrotation
		JOINT Spine
		{
			OFFSET -0.087000 1.940000 -0.288900
			CHANNELS 3 Zrotation Yrotation Xrotation
			JOINT Spine1
			{
				OFFSET 0.000000 1.950000 0.060000
				CHANNELS 3 Zrotation Yrotation Xrotation
				JOINT Neck
				{
					OFFSET 0.000000 0.000000 0.000000
					CHANNELS 3 Zrotation Yrotation Xrotation
					JOINT Neck1
					{
						OFFSET 0.000000 1.600000 0.340000
						CHANNELS 3 Zrotation Yrotation Xrotation
						JOINT Head
						{
							OFFSET 0.000000 1.667000 -0.240000
							CHANNELS 3 Zrotation Yrotation Xrotation
							End Site
							{
								OFFSET 0.000000 0.000000 0.000000
							}
						}
					}
				}
				JOINT LeftShoulder
				{
					OFFSET 0.000000 0.000000 0.000000
					CHANNELS 3 Zrotation Yrotation Xrotation
					JOINT LeftArm
					{
						OFFSET 2.700000 1.550000 -0.730000
						CHANNELS 3 Zrotation Yrotation Xrotation
						JOINT LeftForeArm
						{
							OFFSET 5.450000 0.000000 0.000000
							CHANNELS 3 Zrotation Yrotation Xrotation
							JOINT LeftHand
							{
								OFFSET 3.450000 0.000000 0.000000
								CHANNELS 3 Zrotation Yrotation Xrotation
								JOINT LeftHandIndex1
								{
									OFFSET 0.750000 0.000000 0.000000
									CHANNELS 3 Zrotation Yrotation Xrotation
									End Site
									{
										OFFSET 0.000000 0.000000 0.000000
									}
								}
							}
						}
					}
				}
				JOINT RightShoulder
				{
					OFFSET 0.000000 0.000000 0.000000
					CHANNELS 3 Zrotation Yrotation Xrotation
					JOINT RightArm
					{
						OFFSET -2.700000 1.550000 -0.730000
						CHANNELS 3 Zrotation Yrotation Xrotation
						JOINT RightForeArm
						{
							OFFSET -5.450000 0.000000 0.000000
							CHANNELS 3 Zrotation Yrotation Xrotation
							JOINT RightHand
							{
								OFFSET -3.450000 0.000000 0.000000
								CHANNELS 3 Zrotation Yrotation Xrotation
								JOINT RightHandIndex1
								{
									OFFSET -0.750000 0.000000 0.000000
									CHANNELS 3 Zrotation Yrotation Xrotation
									End Site
									{
										OFFSET 0.000000 0.000000 0.000000
									}
								}
							}
						}
					}
				}
			}
		}
	}
}
MOTION
Frames: 14
Frame Time: 0.016667
0.906620 16.738120 -8.238520 -4.080248 -8.969900 8.922939 -15.730826 13.114228 3.560392 12.449552 -3.277155 -35.058033 2.036067 6.947964 32.952219 -0.325845 5.288585 2.315469 0.691300 0.768210 0.676250 17.784303 -9.004272 3.856665 -28.147576 4.422139 -28.030058 21.712441 -7.468976 14.247213 -0.462258 -4.377415 2.516138 0.513550 -0.271610 0.029250 -2.065175 -3.932434 -8.663254 6.931639 7.074018 28.412981 22.270974 6.742676 8.778933 -2.055839 5.265384 -6.581370 9.366032 3.545687 55.368153 0.697140 14.076280 -15.889930 -20.898245 -13.840062 3.696456 -34.559265 -18.818424 1.352456 -66.899173 -48.527572 28.874959 -3.590633 3.278753 0.457260 -0.123040 0.406930 0.094060 26.755914 17.058436 -0.181353 38.345271 31.714282 1.998735 18.202178 27.235142 3.721796 2.349965 -1.186232 -0.068450 0.235060 -0.312710 -0.257310 
0.923490 16.748090 -8.277120 -2.566880 -10.386165 8.398853 -15.683230 13.281563 3.552536 10.799652 -3.813680 -33.906704 1.651204 6.674828 32.460419 -0.352239 5.110120 2.396731 0.694050 0.764520 0.683630 17.782914 -9.118244 3.791864 -28.094941 4.134573 -28.316345 19.331804 -6.868796 13.885200 -0.404254 -4.069324 2.634032 0.518840 -0.275380 0.017030 -2.101667 -4.029285 -8.629532 8.936392 6.060657 30.669693 19.813074 6.901314 7.350796 0.008047 6.977233 -5.999820 13.601947 1.130042 56.617295 1.287300 13.080180 -15.047260 -26.566216 -13.195866 3.425621 -37.537603 -16.988923 -0.033851 -56.556685 -46.394908 22.295175 -3.597153 3.185266 0.472610 -0.125910 0.411530 0.102030 28.409852 15.716681 -1.089672 37.352998 31.416704 1.657870 19.841501 28.568539 4.399318 2.353058 -1.185342 -0.084710 0.244020 -0.326010 -0.261710 
0.959450 16.790290 -8.303920 -1.205381 -12.425166 7.899874 -15.607752 13.488044 3.511917 9.425183 -4.127059 -31.815035 0.237511 6.564543 30.607494 -0.382221 4.846761 2.515290 0.661880 0.712530 0.685430 17.798602 -9.276644 3.709278 -27.561929 3.891729 -29.129879 16.383377 -6.276075 13.995497 -0.330617 -3.707094 2.763904 0.491990 -0.268470 0.027380 -2.183896 -4.104137 -8.545115 11.212172 4.282959 33.044371 16.913051 6.315524 5.595752 2.355682 8.241750 -5.292928 17.733332 -1.608935 57.987952 0.078470 12.085410 -13.400380 -32.835984 -11.870458 3.134443 -39.300474 -13.999025 -2.045331 -47.730618 -46.039809 17.746856 -3.635568 3.123695 0.452960 -0.102930 0.394430 0.081970 30.294850 14.257929 -2.754420 36.818220 32.851273 3.280326 22.021842 26.234483 4.788334 2.407157 -1.132982 -0.085580 0.236720 -0.302340 -0.269790 
0.977660 16.816180 -8.321120 0.417186 -12.691854 7.555518 -15.536651 13.595155 3.500612 7.733828 -4.550704 -30.145742 -0.729541 6.127505 28.284759 -0.507008 4.473455 2.667024 0.683130 0.712050 0.734210 17.830277 -9.450578 3.595155 -27.447839 3.462411 -29.569334 13.475626 -5.844066 14.163841 -0.312660 -3.419617 2.847877 0.512840 -0.284580 0.042260 -2.308568 -4.053557 -8.431748 13.688316 2.715608 34.808485 14.405494 5.765913 3.954518 4.585965 9.814167 -4.635171 22.481643 -4.113457 55.685753 -0.769990 11.520890 -15.404900 -36.893967 -10.244191 2.450621 -41.038433 -12.298299 -3.301079 -42.427328 -45.119457 14.736670 -3.649206 3.045534 0.510020 -0.103660 0.412780 0.060620 30.275319 11.974382 -4.253301 36.703373 33.512511 4.089661 24.625922 26.526057 5.594666 2.390114 -1.106023 -0.114060 0.257800 -0.289820 -0.311740 
0.996140 16.838290 -8.327390 1.881064 -13.125451 8.001301 -15.421363 13.514066 3.480825 6.176124 -4.893114 -28.754076 -1.650773 5.638353 25.336481 -0.605044 4.019967 2.865645 0.665720 0.678850 0.772010 17.927430 -9.610779 3.611894 -27.629253 3.082235 -30.563887 11.241996 -5.343594 13.417233 -0.274749 -3.181178 2.929979 0.518210 -0.284750 0.028630 -2.599141 -3.639522 -8.363455 16.763721 1.019233 34.909251 11.603178 4.803492 2.569400 6.423513 10.940084 -4.507268 26.481633 -5.362182 53.157378 -1.821120 12.134950 -15.556080 -39.713584 -9.187604 2.160206 -42.550354 -10.806744 -4.465320 -36.821442 -44.143193 11.799715 -3.657140 2.967780 0.525380 -0.083290 0.402650 0.037990 29.655320 9.928873 -5.262190 37.247691 33.809159 5.014110 27.192315 26.282361 6.202022 2.402017 -1.113140 -0.159820 0.267970 -0.292640 -0.346010 
1.018300 16.856130 -8.318080 3.355668 -13.680240 8.755361 -15.276991 13.287616 3.485475 4.887324 -5.145763 -27.752659 -3.258313 5.473214 22.652947 -0.609653 3.687934 3.038412 0.639880 0.653960 0.751700 18.074691 -9.731999 3.715142 -28.349053 2.809871 -31.771609 10.000752 -5.068967 12.756984 -0.243171 -3.099900 2.980704 0.511160 -0.254600 0.006430 -3.011279 -3.022128 -8.347106 20.617235 -0.727723 34.013205 8.937572 3.692293 1.545704 7.489615 11.091801 -4.696862 27.676997 -6.436565 51.701308 -1.862660 10.905890 -13.942850 -41.034238 -8.334307 2.258770 -43.951491 -8.524508 -5.589758 -33.712376 -42.728226 9.906162 -3.626295 2.937888 0.491750 -0.065540 0.379280 0.062190 28.773482 8.387479 -5.607583 36.703289 32.812600 4.846883 30.430662 27.807612 7.331545 2.420198 -1.185036 -0.178290 0.277100 -0.318780 -0.319440 
1.032370 16.847880 -8.305630 4.965246 -14.226354 9.512022 -15.209022 13.173468 3.522696 3.542200 -5.318079 -26.941498 -4.598651 5.266705 19.966567 -0.580764 3.385203 3.189677 0.592910 0.601860 0.689280 18.151658 -9.732636 3.785701 -29.140587 2.548821 -32.838603 8.455158 -4.730346 11.978453 -0.215663 -2.974016 3.050174 0.467100 -0.223650 -0.004970 -3.215601 -2.835925 -8.392709 23.452162 -1.893306 32.947520 7.778345 3.149166 0.609744 7.588476 10.719724 -5.310167 26.275937 -6.528546 51.233025 -0.991000 9.147880 -12.346850 -40.782235 -8.720356 2.911758 -46.306710 -6.022347 -6.592197 -31.979668 -39.982113 8.147458 -3.588218 2.931561 0.462700 -0.066110 0.353690 0.081510 27.898157 8.428716 -4.763462 33.735619 29.401357 2.536125 35.917721 31.985295 9.758770 2.407421 -1.310549 -0.173000 0.271190 -0.314450 -0.281440 
1.019540 16.833870 -8.299860 6.837601 -14.475110 10.597810 -15.146256 12.876817 3.585464 2.564520 -5.649644 -26.856076 -6.641474 5.322361 17.833289 -0.530666 3.227630 3.262055 0.573250 0.587080 0.640930 18.260795 -9.676465 3.914531 -30.600003 2.209542 -34.189462 7.641733 -4.607738 11.306592 -0.221617 -2.984530 3.047741 0.437790 -0.212460 -0.000890 -3.479926 -2.430682 -8.477522 25.614089 -2.703310 31.118767 6.669145 2.478401 0.195383 7.386004 10.733938 -6.052990 25.816230 -6.418725 49.785251 0.295300 8.001950 -11.532990 -38.708072 -9.261424 3.532596 -47.801113 -4.073724 -6.970994 -32.351791 -35.807925 6.944184 -3.568904 2.960400 0.432210 -0.072870 0.341680 0.095610 25.836109 8.062106 -3.924355 33.295135 26.969632 1.391208 40.501375 34.844333 11.711113 2.407622 -1.423502 -0.143620 0.246420 -0.312440 -0.249060 
1.015400 16.828080 -8.277180 8.569037 -14.553234 11.063670 -15.075218 12.668472 3.605510 1.467729 -5.792034 -26.012267 -8.304620 5.239494 15.587220 -0.466847 3.077684 3.328384 0.561900 0.572330 0.610830 18.365175 -9.674589 3.994931 -32.008184 1.674743 -34.980814 7.027247 -4.734961 11.350711 -0.258925 -3.068432 2.997784 0.390960 -0.224370 0.030570 -3.741545 -2.098980 -8.514611 28.584192 -4.050183 29.936172 4.074474 1.714794 -0.461937 7.420650 10.673012 -6.633315 24.633144 -6.261480 47.521235 0.926020 6.757600 -12.092460 -37.706269 -9.924278 3.828902 -46.972074 -2.134151 -7.300902 -33.274878 -31.566579 5.962608 -3.543356 3.034465 0.407600 -0.092970 0.346440 0.090710 24.231353 7.539396 -2.681022 32.989868 23.153931 -0.644495 45.772390 39.226391 14.436154 2.405224 -1.546152 -0.083270 0.203720 -0.294760 -0.225350 
0.995760 16.784980 -8.237620 10.857516 -15.204617 12.203175 -15.014623 12.239366 3.618539 -0.047150 -6.183716 -25.757573 -10.080846 5.197242 13.676317 -0.414955 2.977056 3.384163 0.525260 0.532210 0.553460 18.511290 -9.560311 4.222662 -34.646129 0.913371 -36.190185 7.187334 -4.888658 10.445218 -0.283358 -3.298395 2.905997 0.346240 -0.203630 0.043890 -4.072347 -1.516471 -8.629839 30.006512 -5.026258 27.445563 1.421751 0.674679 -0.991854 7.059949 10.473008 -6.883048 22.983065 -5.430938 43.631081 1.764600 5.709920 -12.323790 -35.873384 -9.624892 4.006052 -45.478156 0.625853 -7.519775 -35.110660 -26.329582 4.799129 -3.536985 3.100193 0.369210 -0.089840 0.311030 0.080540 22.650276 6.137389 -1.948940 34.907290 20.191898 -1.588329 49.926743 41.530716 16.281001 2.411503 -1.632879 -0.050980 0.172060 -0.261280 -0.203540 
0.967830 16.765460 -8.195490 12.479210 -16.303146 13.050552 -14.958272 11.927687 3.556951 -1.415868 -6.188316 -25.106606 -10.670354 4.966186 11.829733 -0.431424 2.881017 3.454537 0.453130 0.438470 0.495400 18.637245 -9.488659 4.423255 -36.536561 0.471418 -37.326340 7.528284 -5.038733 9.864538 -0.264557 -3.513295 2.833252 0.304020 -0.148160 0.059690 -4.363958 -0.999542 -8.659627 31.916966 -5.837229 25.154326 -1.367235 -0.094598 -1.333558 7.197524 10.251982 -6.710263 21.517586 -4.927941 39.643874 0.459640 5.122470 -11.688490 -35.854008 -9.131676 3.825143 -42.568658 2.602353 -6.997877 -35.345094 -20.355075 3.101034 -3.575690 3.123143 0.322290 -0.036670 0.239470 0.055630 21.958974 4.870220 -1.495768 36.371117 18.048544 -2.054452 53.186143 43.751986 18.136307 2.396613 -1.696344 -0.064520 0.157070 -0.201680 -0.203080 
0.924120 16.727420 -8.152340 13.991727 -16.775494 13.545620 -14.928458 11.670824 3.491571 -2.489386 -6.109376 -24.346938 -11.291575 4.759893 10.101617 -0.439640 2.786835 3.500033 0.464790 0.457260 0.484190 18.727287 -9.429883 4.540641 -38.222518 -0.014219 -37.022740 7.964502 -5.001000 8.422885 -0.305183 -3.679502 2.761358 0.312930 -0.135270 0.071550 -4.574826 -0.619228 -8.669710 32.584553 -6.566201 22.835638 -2.496360 -1.286111 -0.920057 6.865740 9.934282 -6.547592 20.230051 -4.409429 36.696094 1.080270 4.576470 -13.569420 -33.331259 -8.097873 3.694887 -42.149061 3.713551 -6.512887 -34.649242 -13.690106 0.941161 -3.592661 3.090129 0.323970 -0.041400 0.241610 0.061660 20.024220 3.157420 -1.531882 38.724113 17.552521 -1.908709 54.648507 45.067151 19.132182 2.392250 -1.707967 -0.055020 0.169540 -0.192430 -0.191600 
0.886480 16.715510 -8.114470 14.928667 -17.461435 14.055262 -14.918254 11.517089 3.413938 -3.486468 -5.899102 -23.592742 -11.023128 4.460626 8.645767 -0.439690 2.644389 3.565640 0.450350 0.439050 0.467850 18.781930 -9.348106 4.682424 -39.463698 -0.312414 -36.988857 8.701636 -4.945168 7.209337 -0.318004 -3.827706 2.705197 0.299170 -0.131730 0.076030 -4.692582 -0.404690 -8.683421 33.459161 -7.369087 21.037591 -3.803035 -2.147205 -0.903383 6.655415 9.731493 -6.828740 19.239476 -4.814180 34.020769 0.934320 3.619910 -13.987620 -32.149859 -8.090930 4.142171 -41.847247 5.862322 -6.849254 -34.758277 -9.603174 -0.505235 -3.585444 3.091138 0.305990 -0.039540 0.226110 0.056340 18.967952 2.839549 -1.082111 40.167835 16.297172 -2.310759 55.906746 45.380478 19.472499 2.398749 -1.741760 -0.046370 0.154000 -0.185560 -0.183770 
0.823150 16.710320 -8.076560 15.488778 -18.456786 14.134226 -14.896603 11.419317 3.315121 -3.782174 -5.430777 -22.422835 -11.045624 4.239391 6.998304 -0.402310 2.562650 3.607753 0.444410 0.430080 0.443050 18.833133 -9.311369 4.805129 -40.128002 -0.574618 -37.416386 9.882915 -5.147721 7.138624 -0.321808 -3.990025 2.647693 0.282420 -0.139040 0.083130 -4.814281 -0.191494 -8.672665 34.569479 -8.030056 19.436889 -4.761751 -2.785033 -0.779471 6.301118 9.024310 -6.939408 17.380030 -5.919910 32.409093 0.569060 1.677390 -13.844060 -30.931735 -7.396768 4.313397 -41.387415 7.745394 -7.174405 -33.613653 -7.420420 -1.279154 -3.564675 3.106749 0.274800 -0.047150 0.212380 0.062430 18.170834 2.432641 -0.654787 41.428577 14.946476 -2.915164 55.281738 46.195435 19.347480 2.412880 -1.779137 -0.018270 0.121990 -0.191370 -0.160940 
